<svg xmlns="http://www.w3.org/2000/svg" width="120" height="30" fill="none"><path fill="#fff" d="M51.022 14.976a9.4 9.4 0 0 1-.195 1.877 9 9 0 0 1-.585 1.686c-.268.53-.56.987-.95 1.444-.366.434-.78.82-1.267 1.156l3.776 4.045h-2.266a3.2 3.2 0 0 1-.877-.12 1.76 1.76 0 0 1-.73-.482l-2.17-2.36a8 8 0 0 1-1.071.217 9 9 0 0 1-1.145.073 8.4 8.4 0 0 1-3.07-.554c-.926-.385-1.73-.891-2.388-1.565a7.2 7.2 0 0 1-1.535-2.384c-.366-.915-.536-1.902-.536-2.985 0-1.084.17-2.071.536-2.986a7.2 7.2 0 0 1 1.535-2.384c.658-.674 1.462-1.18 2.388-1.565s1.949-.553 3.07-.553q1.68 0 3.07.577c.926.386 1.705.891 2.363 1.566a7.2 7.2 0 0 1 1.535 2.383c.341.843.512 1.854.512 2.914m-2.827 0c0-.795-.121-1.517-.316-2.168a4.9 4.9 0 0 0-.926-1.637 3.6 3.6 0 0 0-1.462-1.011 5.1 5.1 0 0 0-1.95-.361c-.73 0-1.388.12-1.949.361a4.3 4.3 0 0 0-1.486 1.011 4.55 4.55 0 0 0-.95 1.638c-.22.626-.317 1.348-.317 2.167a7.5 7.5 0 0 0 .317 2.166c.22.626.536 1.18.95 1.614.414.433.902.77 1.486 1.01a5.1 5.1 0 0 0 1.95.362c.73 0 1.389-.12 1.949-.361a4 4 0 0 0 1.462-1.011c.414-.434.706-.988.926-1.614a7.3 7.3 0 0 0 .316-2.166m10.964 5.128c.536 0 .999-.096 1.437-.265a3 3 0 0 0 1.73-1.902c.146-.457.244-.963.244-1.517V7.632h2.753v8.788c0 .867-.146 1.686-.414 2.408a5.7 5.7 0 0 1-1.218 1.926c-.536.53-1.17.963-1.925 1.252-.755.313-1.608.458-2.558.458s-1.804-.145-2.559-.458a5.3 5.3 0 0 1-1.925-1.252 5.1 5.1 0 0 1-1.218-1.926 6.5 6.5 0 0 1-.439-2.408V7.632h2.754v8.764q0 .831.219 1.517.22.687.658 1.156a2.85 2.85 0 0 0 1.072.746c.39.217.853.29 1.389.29zm23.197-5.128c0 1.083-.17 2.07-.536 2.985a7.2 7.2 0 0 1-1.535 2.384c-.658.674-1.438 1.18-2.364 1.565s-1.949.554-3.07.554a8.4 8.4 0 0 1-3.07-.554c-.926-.385-1.73-.89-2.388-1.565a7.2 7.2 0 0 1-1.535-2.384c-.365-.914-.536-1.902-.536-2.985 0-1.084.17-2.07.536-2.986a7.2 7.2 0 0 1 1.535-2.383c.658-.674 1.462-1.18 2.388-1.565.926-.386 1.95-.554 3.07-.554q1.681 0 3.07.578c.926.385 1.706.89 2.364 1.565a7.2 7.2 0 0 1 1.535 2.383c.365.891.536 1.902.536 2.962m-2.827 0c0-.795-.121-1.517-.316-2.167a4.9 4.9 0 0 0-.926-1.637 3.6 3.6 0 0 0-1.462-1.011 5.5 5.5 0 0 0-1.95-.362c-.73 0-1.388.12-1.949.362a4.3 4.3 0 0 0-1.486 1.01 4.55 4.55 0 0 0-.95 1.638c-.22.626-.317 1.348-.317 2.167 0 .794.122 1.517.317 2.167.22.626.536 1.18.95 1.613s.902.77 1.486 1.011a5.1 5.1 0 0 0 1.95.361c.73 0 1.388-.12 1.949-.36a3.96 3.96 0 0 0 1.462-1.012c.414-.433.706-.987.926-1.613.219-.626.316-1.349.316-2.167m14.668-7.32v2.24h-4.459v12.423h-2.753V9.896h-4.483v-2.24zm11.086 0v2.167h-6.579v4.07h5.19v2.094h-5.19v4.141h6.579v2.191h-9.356V7.656zm5.971 7.104-4.727-7.104h2.753c.195 0 .341.024.414.073a.53.53 0 0 1 .22.24l3.387 5.394c.024-.097.073-.169.121-.265.049-.072.098-.169.147-.265l3.094-4.815c.146-.241.341-.386.585-.386h2.656l-4.825 7.03 4.922 7.657h-2.753c-.171 0-.341-.048-.439-.144a1.2 1.2 0 0 1-.292-.313l-3.436-5.61c-.024.072-.048.144-.097.24-.025.073-.073.145-.098.193l-3.313 5.153c-.073.12-.171.216-.268.313a.62.62 0 0 1-.415.144h-2.582l4.946-7.536z"/><path fill="#FAFAFA" d="M26.44 22.512v-15l-6.224-3.54v2.529l3.995 2.287v12.448l-1.765 1.011V12.135h-2.23v11.388l-1.813 1.012V9.294h-2.23V25.81l-1.813 1.035V3.178l4.043 2.312V2.937L13.233 0 8.087 2.937v2.528l4.043-2.287v23.668l-1.814-1.035V9.294h-2.23v15.265l-1.813-1.036V12.135h-2.23V22.27L2.23 21.236V8.788l.122-.072L6.273 6.5V3.949L0 7.512v15L13.233 30l13.208-7.488z"/></svg>