<svg xmlns="http://www.w3.org/2000/svg" width="111" height="40" fill="none"><path fill="#fff" d="M19.851 19.967c0 .867-.096 1.702-.257 2.504-.192.803-.45 1.541-.77 2.247a9.4 9.4 0 0 1-1.253 1.927 8.5 8.5 0 0 1-1.67 1.54l4.978 5.394h-2.987a4.2 4.2 0 0 1-1.156-.16 2.3 2.3 0 0 1-.963-.643l-2.859-3.146c-.45.129-.931.225-1.413.29-.482.063-.995.095-1.51.095-1.477 0-2.826-.256-4.046-.738-1.22-.514-2.28-1.188-3.147-2.087a9.6 9.6 0 0 1-2.024-3.178c-.481-1.22-.706-2.536-.706-3.98 0-1.445.225-2.761.706-3.981a9.6 9.6 0 0 1 2.024-3.178c.867-.9 1.927-1.573 3.147-2.087s2.57-.738 4.047-.738q2.216 0 4.046.77c1.22.514 2.248 1.188 3.116 2.087a9.6 9.6 0 0 1 2.023 3.178c.45 1.123.674 2.472.674 3.884m-3.725 0c0-1.06-.16-2.022-.418-2.889a6.5 6.5 0 0 0-1.22-2.183 4.8 4.8 0 0 0-1.927-1.348c-.77-.321-1.638-.482-2.57-.482-.963 0-1.83.16-2.569.482-.77.32-1.413.77-1.959 1.348a6.1 6.1 0 0 0-1.252 2.183c-.29.835-.418 1.798-.418 2.89 0 1.059.16 2.022.418 2.889.289.834.706 1.573 1.252 2.15a5.6 5.6 0 0 0 1.96 1.349c.77.32 1.637.481 2.569.481.963 0 1.83-.16 2.569-.481a5.2 5.2 0 0 0 1.927-1.349c.546-.577.931-1.316 1.22-2.15a9.8 9.8 0 0 0 .418-2.89m14.45 6.839a5.1 5.1 0 0 0 1.895-.354 4 4 0 0 0 1.413-.995q.579-.625.867-1.54a6.7 6.7 0 0 0 .321-2.023V10.176h3.63v11.718a9.4 9.4 0 0 1-.546 3.21c-.386.995-.9 1.83-1.606 2.568a7.3 7.3 0 0 1-2.537 1.67c-.996.417-2.12.61-3.373.61-1.252 0-2.376-.193-3.372-.61a7 7 0 0 1-2.537-1.67 6.84 6.84 0 0 1-1.606-2.568 8.8 8.8 0 0 1-.578-3.21V10.176h3.63v11.686q0 1.107.288 2.022.29.915.867 1.541c.386.418.835.77 1.413.995.514.29 1.125.386 1.831.386m30.576-6.838c0 1.445-.224 2.76-.706 3.98a9.6 9.6 0 0 1-2.024 3.179c-.867.899-1.894 1.573-3.115 2.086-1.22.514-2.57.739-4.047.739s-2.826-.257-4.046-.739c-1.22-.513-2.28-1.187-3.148-2.086a9.6 9.6 0 0 1-2.023-3.178c-.481-1.22-.706-2.537-.706-3.981 0-1.445.224-2.761.706-3.98a9.6 9.6 0 0 1 2.023-3.18c.868-.898 1.927-1.572 3.148-2.086 1.22-.513 2.57-.738 4.047-.738q2.216 0 4.046.77c1.22.514 2.248 1.188 3.115 2.087a9.6 9.6 0 0 1 2.024 3.178c.482 1.188.706 2.536.706 3.949m-3.725 0c0-1.06-.16-2.023-.418-2.89a6.5 6.5 0 0 0-1.22-2.182c-.514-.61-1.188-1.06-1.927-1.349a7.2 7.2 0 0 0-2.57-.481c-.963 0-1.83.16-2.569.481-.77.321-1.413.77-1.959 1.349a6.1 6.1 0 0 0-1.252 2.183c-.29.834-.418 1.797-.418 2.889 0 1.06.16 2.022.418 2.89.289.834.706 1.572 1.252 2.15a5.6 5.6 0 0 0 1.96 1.348c.77.321 1.637.482 2.569.482.963 0 1.83-.16 2.569-.482a5.2 5.2 0 0 0 1.927-1.348c.546-.578.931-1.316 1.22-2.15.29-.836.418-1.799.418-2.89m19.334-9.759v2.985h-5.877V29.76h-3.63V13.194h-5.909V10.21h15.416zm14.612 0v2.889h-8.671v5.425h6.84v2.793h-6.84v5.522h8.671v2.921H79.041V10.21h12.332zm7.87 9.47-6.23-9.47h3.629c.257 0 .45.032.546.096a.7.7 0 0 1 .289.32l4.464 7.192c.032-.129.096-.225.16-.353a3 3 0 0 0 .193-.353l4.079-6.421c.192-.321.449-.514.771-.514h3.5l-6.359 9.374 6.488 10.21h-3.629c-.225 0-.45-.065-.579-.194a1.6 1.6 0 0 1-.385-.417l-4.528-7.48a2 2 0 0 1-.129.321c-.032.097-.096.193-.128.257l-4.368 6.87c-.096.16-.225.289-.353.417a.8.8 0 0 1-.546.193h-3.405z"/></svg>