<svg xmlns="http://www.w3.org/2000/svg" width="136" height="40" fill="none"><g clip-path="url(#a)"><path fill="#000" d="M130.963 0H5.037C2.255 0 0 2.239 0 5v30c0 2.761 2.255 5 5.037 5h125.926c2.782 0 5.037-2.239 5.037-5V5c0-2.761-2.255-5-5.037-5"/><path fill="#A6A6A6" d="M130.963.8c2.337 0 4.231 1.88 4.231 4.2v30c0 2.32-1.894 4.2-4.231 4.2H5.037C2.7 39.2.806 37.32.806 35V5C.806 2.68 2.7.8 5.037.8zm0-.8H5.037C2.267 0 0 2.25 0 5v30c0 2.75 2.267 5 5.037 5h125.926c2.77 0 5.037-2.25 5.037-5V5c0-2.75-2.267-5-5.037-5"/><path fill="#fff" d="M73.302 6.273v4.977h-.95L70.22 7.798v3.452h-.946V6.273h.947l2.138 3.456V6.273zm-4.831 2.362v.257q0 .564-.151 1.015a2.2 2.2 0 0 1-.43.762q-.28.315-.665.482a2.1 2.1 0 0 1-.858.167q-.465 0-.854-.167a1.9 1.9 0 0 1-.668-.482 2.2 2.2 0 0 1-.437-.762q-.155-.452-.155-1.015v-.257q0-.567.155-1.015t.434-.762q.278-.318.665-.485.389-.168.853-.168.472 0 .858.168.385.167.664.485.283.315.434.762.156.448.155 1.015m-.957.257v-.264q0-.406-.076-.714a1.5 1.5 0 0 0-.224-.523.95.95 0 0 0-.365-.318 1.1 1.1 0 0 0-.489-.11q-.275 0-.489.11a1 1 0 0 0-.358.318 1.6 1.6 0 0 0-.227.523q-.075.308-.076.714v.264q0 .403.076.714.08.311.227.526.152.213.365.322.214.108.49.109.275 0 .488-.11a.96.96 0 0 0 .358-.32q.15-.216.224-.527t.076-.714m-6.873-2.619v4.977h-.943V6.273zm1.556 0v.742H58.16v-.742zm-4.627 0v4.977h-.947V6.273zm-4.78 0v4.977h-.943V6.273zm1.557 0v.742h-4.04v-.742zm-4.435 4.239v.738h-2.665v-.738zm-2.376-4.239v4.977h-.947V6.273zm2.028 2.055v.72h-2.317v-.72zm.338-2.055v.742h-2.655v-.742zm-4.208 2.403v1.938q-.111.14-.348.304-.234.164-.613.284a3.2 3.2 0 0 1-.93.116q-.478 0-.874-.157a1.9 1.9 0 0 1-.682-.468 2.1 2.1 0 0 1-.44-.752 3.1 3.1 0 0 1-.156-1.015v-.328q0-.571.145-1.015a2.1 2.1 0 0 1 .42-.752q.276-.309.658-.469.386-.16.86-.16.637 0 1.047.208.414.209.634.574.22.363.276.834h-.923a1.3 1.3 0 0 0-.152-.454.8.8 0 0 0-.324-.308 1.1 1.1 0 0 0-.537-.113q-.279 0-.492.11a1 1 0 0 0-.358.318q-.145.208-.22.516-.073.308-.073.704v.335q0 .4.083.71.082.309.237.52.159.21.39.318.233.105.53.106.269 0 .444-.044.18-.048.286-.113a.8.8 0 0 0 .165-.127v-.933h-.995v-.687zM68.645 21.75c-2.368 0-4.302 1.79-4.302 4.25s1.934 4.25 4.302 4.25 4.301-1.8 4.301-4.25-1.934-4.25-4.301-4.25m0 6.83c-1.3 0-2.418-1.06-2.418-2.58s1.118-2.58 2.418-2.58 2.418 1.05 2.418 2.58-1.119 2.58-2.418 2.58m-9.38-6.83c-2.367 0-4.3 1.79-4.3 4.25s1.933 4.25 4.3 4.25 4.303-1.8 4.303-4.25-1.935-4.25-4.302-4.25m0 6.83c-1.299 0-2.417-1.06-2.417-2.58s1.118-2.58 2.418-2.58 2.418 1.05 2.418 2.58-1.119 2.58-2.418 2.58m-11.161-5.53v1.8h4.352c-.131 1.01-.474 1.76-.988 2.27-.634.63-1.621 1.32-3.354 1.32-2.68 0-4.775-2.14-4.775-4.8s2.095-4.8 4.775-4.8c1.44 0 2.498.56 3.274 1.29l1.28-1.27c-1.089-1.03-2.53-1.82-4.564-1.82-3.667 0-6.75 2.96-6.75 6.61s3.083 6.61 6.75 6.61c1.984 0 3.475-.64 4.644-1.85 1.199-1.19 1.572-2.87 1.572-4.22 0-.42-.03-.81-.101-1.13h-6.115zm45.645 1.4c-.352-.95-1.44-2.71-3.667-2.71s-4.04 1.72-4.04 4.25c0 2.38 1.814 4.25 4.252 4.25a4.25 4.25 0 0 0 3.566-1.88l-1.46-.97c-.484.71-1.149 1.18-2.106 1.18s-1.642-.43-2.075-1.29l5.732-2.35-.191-.48zm-5.843 1.42c-.05-1.64 1.28-2.48 2.237-2.48.745 0 1.38.37 1.592.9zm-4.654 4.12h1.884v-12.5h-1.884zm-3.082-7.3h-.06c-.424-.5-1.23-.95-2.257-.95-2.146 0-4.11 1.87-4.11 4.27s1.964 4.24 4.11 4.24c1.017 0 1.833-.45 2.256-.97h.06v.61c0 1.63-.876 2.5-2.286 2.5-1.149 0-1.864-.82-2.156-1.51l-1.642.68c.473 1.13 1.723 2.51 3.798 2.51 2.206 0 4.07-1.29 4.07-4.43V22h-1.784zm-2.156 5.88c-1.3 0-2.388-1.08-2.388-2.56s1.088-2.59 2.388-2.59 2.287 1.1 2.287 2.59-1.008 2.56-2.287 2.56m24.56-11.08h-4.503v12.5h1.884v-4.74h2.629c2.086 0 4.131-1.5 4.131-3.88s-2.045-3.88-4.131-3.88zm.051 6.03h-2.67v-4.29h2.67c1.41 0 2.206 1.16 2.206 2.14s-.796 2.14-2.206 2.14zm11.615-1.8c-1.36 0-2.77.6-3.355 1.91l1.673.69c.352-.69 1.017-.92 1.712-.92.967 0 1.965.58 1.975 1.61v.13a4.24 4.24 0 0 0-1.965-.48c-1.803 0-3.626.98-3.626 2.81 0 1.67 1.47 2.75 3.123 2.75 1.259 0 1.964-.56 2.397-1.22h.061v.96h1.813v-4.79c0-2.22-1.672-3.46-3.828-3.46zm-.232 6.85c-.614 0-1.47-.31-1.47-1.06 0-.96 1.067-1.33 1.994-1.33.826 0 1.219.18 1.713.42-.141 1.16-1.149 1.98-2.237 1.98zm10.659-6.58-2.156 5.42h-.061l-2.236-5.42h-2.025l3.355 7.58-1.914 4.21h1.964l5.168-11.79zm-16.935 8h1.884v-12.5h-1.884z"/><path fill="#EA4335" d="m20.873 19.42-10.728 11.3a2.895 2.895 0 0 0 2.8 2.13c.534 0 1.038-.14 1.47-.4l.031-.02 12.069-6.91-5.652-6.11z"/><path fill="#FBBC04" d="M31.723 17.5h-.01l-5.208-3.01-5.873 5.19 5.893 5.85 5.188-2.97a2.88 2.88 0 0 0 1.521-2.53c0-1.09-.604-2.04-1.51-2.52z"/><path fill="#4285F4" d="M10.145 9.28c-.06.24-.101.48-.101.74v19.96c0 .26.03.5.1.74l11.092-11.01z"/><path fill="#34A853" d="m20.954 20 5.55-5.51-12.058-6.94a2.9 2.9 0 0 0-1.5-.41c-1.34 0-2.469.91-2.801 2.13l10.809 10.72z"/></g><defs><clipPath id="a"><path fill="#fff" d="M0 0h136v40H0z"/></clipPath></defs></svg>