<svg xmlns="http://www.w3.org/2000/svg" width="136" height="40" fill="none"><g clip-path="url(#a)"><path fill="#a6a6a6" d="M125.17 0H10.836c-.417 0-.828 0-1.244.002C9.244.004 8.9.01 8.548.015 7.785.023 7.023.082 6.27.192a8.3 8.3 0 0 0-2.16.627c-.68.306-1.3.703-1.84 1.178A6.4 6.4 0 0 0 .931 3.618a6 6 0 0 0-.71 1.904 11.5 11.5 0 0 0-.204 2.002c-.01.306-.011.614-.017.92V31.56c.006.31.007.61.017.921q.014 1.008.204 2.002c.125.663.364 1.306.71 1.905A6.3 6.3 0 0 0 2.271 38a7.2 7.2 0 0 0 1.839 1.18 8.3 8.3 0 0 0 2.16.63q1.131.164 2.278.177c.351.007.696.011 1.044.011.416.002.828.002 1.244.002H125.17c.408 0 .823 0 1.232-.002.346 0 .701-.004 1.048-.01a17 17 0 0 0 2.273-.178 8.5 8.5 0 0 0 2.168-.63 7.2 7.2 0 0 0 1.838-1.18 6.5 6.5 0 0 0 1.343-1.614c.343-.6.581-1.242.704-1.905q.19-.993.211-2.001c.004-.311.004-.612.004-.922.009-.364.009-.725.009-1.094V9.536c0-.366 0-.73-.009-1.092q.001-.46-.004-.92a12 12 0 0 0-.211-2.002 6.1 6.1 0 0 0-.704-1.904c-.701-1.203-1.814-2.182-3.181-2.8a8.4 8.4 0 0 0-2.168-.627q-1.13-.165-2.273-.176c-.347-.005-.702-.011-1.048-.013C125.993 0 125.578 0 125.17 0"/><path fill="#000" d="M9.604 38.998c-.346 0-.684-.004-1.027-.01a16.5 16.5 0 0 1-2.124-.163 7.4 7.4 0 0 1-1.883-.544 6.2 6.2 0 0 1-1.587-1.01 5.4 5.4 0 0 1-1.16-1.387 5.2 5.2 0 0 1-.617-1.646 11 11 0 0 1-.19-1.863c-.007-.21-.016-.907-.016-.907V8.52s.01-.687.017-.889q.012-.936.188-1.86a5.2 5.2 0 0 1 .617-1.65 5.4 5.4 0 0 1 1.154-1.39A6.4 6.4 0 0 1 4.57 1.716a7.3 7.3 0 0 1 1.878-.54q1.06-.153 2.132-.164L9.605 1h116.784l1.038.013q1.064.01 2.112.161c.66.098 1.3.282 1.899.545 1.179.53 2.139 1.371 2.744 2.403.296.517.501 1.069.608 1.639q.177.931.198 1.874c.003.282.003.584.003.885.009.372.009.727.009 1.084v20.791c0 .36 0 .713-.009 1.068 0 .323 0 .62-.004.924a11 11 0 0 1-.195 1.841 5.2 5.2 0 0 1-.613 1.659c-.3.509-.689.974-1.154 1.377a6.2 6.2 0 0 1-1.591 1.015 7.3 7.3 0 0 1-1.895.546q-1.056.15-2.124.162c-.333.007-.682.011-1.02.011l-1.232.002z"/><path fill="#fff" d="M79.803 15.096c-1.414 0-2.27-.966-2.27-2.486v-.004c0-1.506.87-2.513 2.22-2.513s2.178.97 2.178 2.417v.334h-3.41c.019.91.518 1.442 1.305 1.442.586 0 .975-.303 1.099-.664l.013-.037h.939l-.01.05c-.155.765-.897 1.46-2.064 1.46m-.046-4.193c-.64 0-1.135.435-1.222 1.24h2.417c-.082-.833-.55-1.24-1.195-1.24M74.576 15l-1.735-4.815h1.053l1.208 3.85h.023l1.209-3.85h1.03L75.637 15zm-2.838-5.557a.57.57 0 0 1-.577-.568c0-.315.257-.572.577-.572a.57.57 0 1 1 0 1.14M71.243 15v-4.815h.99V15zm-2.769.096c-1.204 0-1.909-.595-2.01-1.474l-.004-.041h.98l.009.046c.091.443.42.704 1.03.704.595 0 .952-.247.952-.636v-.004c0-.312-.174-.49-.691-.614l-.788-.178c-.915-.21-1.368-.65-1.368-1.35v-.005c0-.86.75-1.451 1.858-1.451 1.14 0 1.826.636 1.877 1.455l.004.055h-.929l-.004-.032c-.06-.42-.39-.714-.948-.714-.53 0-.865.252-.865.636v.005c0 .298.197.499.714.623l.783.178c.984.229 1.36.618 1.36 1.31v.004c0 .879-.825 1.483-1.96 1.483m-4.531 0c-1.204 0-1.91-.595-2.01-1.474l-.004-.041h.98l.008.046c.092.443.421.704 1.03.704.595 0 .952-.247.952-.636v-.004c0-.312-.174-.49-.69-.614l-.788-.178c-.916-.21-1.369-.65-1.369-1.35v-.005c0-.86.75-1.451 1.859-1.451 1.14 0 1.826.636 1.876 1.455l.005.055h-.93l-.004-.032c-.06-.42-.389-.714-.947-.714-.531 0-.866.252-.866.636v.005c0 .298.197.499.715.623l.782.178c.984.229 1.36.618 1.36 1.31v.004c0 .879-.824 1.483-1.96 1.483m-4.7 0c-1.415 0-2.27-.966-2.27-2.486v-.004c0-1.506.869-2.513 2.22-2.513 1.35 0 2.178.97 2.178 2.417v.334h-3.41c.018.91.517 1.442 1.305 1.442.585 0 .974-.303 1.098-.664l.014-.037h.938l-.009.05c-.156.765-.897 1.46-2.064 1.46m-.046-4.193c-.64 0-1.135.435-1.222 1.24h2.417c-.083-.833-.55-1.24-1.195-1.24M54.321 15v-4.816h.989v.824h.023c.155-.563.558-.915 1.107-.915.142 0 .266.023.344.036v.92a1.4 1.4 0 0 0-.444-.054c-.637 0-1.03.416-1.03 1.135V15zm-3.191 1.698c-1.235 0-2.018-.572-2.165-1.31l-.004-.04h.98l.018.036c.133.307.55.517 1.167.517.787 0 1.222-.42 1.222-1.094v-.659h-.023c-.274.522-.824.856-1.515.856-1.208 0-2.005-.947-2.005-2.449v-.004c0-1.51.806-2.458 2.028-2.458.678 0 1.209.366 1.492.91h.023v-.819h.994v4.683c0 1.098-.852 1.83-2.211 1.83m-.04-2.5c.755 0 1.258-.636 1.258-1.629v-.005c0-.988-.508-1.624-1.259-1.624-.782 0-1.272.631-1.272 1.625v.004c0 1.007.49 1.63 1.272 1.63m-5.118.898c-1.383 0-2.284-.957-2.284-2.504v-.01c0-1.537.91-2.49 2.28-2.49 1.372 0 2.288.948 2.288 2.49v.01c0 1.552-.906 2.504-2.284 2.504m.004-.829c.774 0 1.268-.613 1.268-1.675v-.01c0-1.052-.503-1.66-1.277-1.66-.76 0-1.268.608-1.268 1.66v.01c0 1.066.504 1.675 1.277 1.675M41.038 15v-4.816h.988v.824h.023c.156-.563.559-.915 1.108-.915.142 0 .265.023.343.036v.92a1.4 1.4 0 0 0-.444-.054c-.636 0-1.03.416-1.03 1.135V15zm-5.429 0V8.393h2.458c1.295 0 2.192.87 2.192 2.165v.01c0 1.29-.897 2.174-2.192 2.174h-1.433v2.256zm2.201-5.74h-1.176v2.622h1.176c.893 0 1.406-.48 1.406-1.309v-.009c0-.824-.513-1.305-1.406-1.305m57.658 24.38v-11.97h1.844v1.546h.043c.537-1.067 1.528-1.716 2.808-1.716 2.288 0 3.757 1.793 3.757 4.661v.009c0 2.86-1.477 4.661-3.731 4.661-1.272 0-2.305-.649-2.834-1.69h-.043v4.499zm4.217-4.397c1.452 0 2.357-1.178 2.357-3.073v-.009c0-1.912-.914-3.082-2.357-3.082-1.4 0-2.382 1.213-2.382 3.082v.009c0 1.86.99 3.073 2.382 3.073m-14.103 4.397v-11.97h1.844v1.546h.043c.538-1.067 1.528-1.716 2.809-1.716 2.287 0 3.756 1.793 3.756 4.661v.009c0 2.86-1.477 4.661-3.73 4.661-1.273 0-2.306-.649-2.835-1.69h-.043v4.499zm4.218-4.397c1.45 0 2.356-1.178 2.356-3.073v-.009c0-1.912-.914-3.082-2.357-3.082-1.4 0-2.381 1.213-2.381 3.082v.009c0 1.86.99 3.073 2.381 3.073M73.417 30.65l4.482-12.318h2.066l4.473 12.319h-2.006l-1.127-3.33h-4.747l-1.135 3.33zm5.498-10.278-1.844 5.412h3.713l-1.835-5.412zM65.375 30.83c-1.29 0-2.288-.649-2.817-1.7h-.043v1.52H60.67V18.333h1.844v4.866h.043c.537-1.059 1.562-1.7 2.834-1.7 2.254 0 3.74 1.794 3.74 4.653v.009c0 2.86-1.478 4.67-3.757 4.67m-.487-1.588c1.451 0 2.356-1.17 2.356-3.082v-.009c0-1.895-.904-3.073-2.356-3.073-1.391 0-2.382 1.212-2.382 3.073v.009c0 1.87.982 3.082 2.382 3.082m-9.688 1.587c-2.638 0-4.235-1.801-4.235-4.636v-.008c0-2.809 1.622-4.687 4.14-4.687 2.52 0 4.065 1.81 4.065 4.508v.623h-6.36c.034 1.699.964 2.689 2.432 2.689 1.093 0 1.819-.563 2.05-1.238l.025-.068h1.75l-.017.094c-.29 1.425-1.673 2.723-3.85 2.723m-.086-7.82c-1.195 0-2.117.811-2.279 2.314h4.508c-.154-1.554-1.025-2.314-2.229-2.314m-16.416 7.64-3.321-12.318h1.989l2.296 9.655h.034l2.604-9.655h1.81l2.604 9.655h.042l2.297-9.655h1.99l-3.33 12.319h-1.836l-2.646-9.289h-.043l-2.655 9.289zm-13.7-10.76a5.15 5.15 0 0 1 2.45-4.318 5.27 5.27 0 0 0-4.15-2.244c-1.746-.184-3.44 1.045-4.33 1.045-.906 0-2.276-1.027-3.752-.997a5.53 5.53 0 0 0-4.651 2.837c-2.011 3.482-.511 8.6 1.415 11.414.964 1.378 2.09 2.918 3.565 2.863 1.442-.06 1.981-.92 3.722-.92 1.725 0 2.23.92 3.734.885 1.548-.025 2.523-1.384 3.453-2.775a11.4 11.4 0 0 0 1.58-3.216 4.97 4.97 0 0 1-3.036-4.575m-2.841-8.412a5.07 5.07 0 0 0 1.16-3.63 5.16 5.16 0 0 0-3.336 1.725 4.82 4.82 0 0 0-1.19 3.496 4.26 4.26 0 0 0 3.366-1.591"/></g><defs><clipPath id="a"><path fill="#fff" d="M0 0h136v40H0z"/></clipPath></defs></svg>